<svg width="24" height="24" viewBox="0 0 24 24" fill="none" xmlns="http://www.w3.org/2000/svg">
<g id="Frame 238689">
<rect y="0.365234" width="23.5" height="23.5" rx="11.75" fill="url(#paint0_linear_312_4116)"/>
<path id="Vector" d="M15.8625 7.41523H14.6875V6.82773C14.6875 6.67192 14.6256 6.52249 14.5154 6.41231C14.4052 6.30213 14.2558 6.24023 14.1 6.24023C13.9442 6.24023 13.7948 6.30213 13.6846 6.41231C13.5744 6.52249 13.5125 6.67192 13.5125 6.82773V7.41523H9.9875V6.82773C9.9875 6.67192 9.9256 6.52249 9.81542 6.41231C9.70525 6.30213 9.55581 6.24023 9.4 6.24023C9.24419 6.24023 9.09475 6.30213 8.98457 6.41231C8.8744 6.52249 8.8125 6.67192 8.8125 6.82773V7.41523H7.6375C7.17006 7.41523 6.72176 7.60093 6.39122 7.93146C6.06069 8.26199 5.875 8.71029 5.875 9.17773V16.2277C5.875 16.6952 6.06069 17.1435 6.39122 17.474C6.72176 17.8045 7.17006 17.9902 7.6375 17.9902H15.8625C16.3299 17.9902 16.7782 17.8045 17.1088 17.474C17.4393 17.1435 17.625 16.6952 17.625 16.2277V9.17773C17.625 8.71029 17.4393 8.26199 17.1088 7.93146C16.7782 7.60093 16.3299 7.41523 15.8625 7.41523ZM16.45 16.2277C16.45 16.3835 16.3881 16.533 16.2779 16.6432C16.1677 16.7533 16.0183 16.8152 15.8625 16.8152H7.6375C7.48169 16.8152 7.33225 16.7533 7.22207 16.6432C7.1119 16.533 7.05 16.3835 7.05 16.2277V12.1152H16.45V16.2277ZM16.45 10.9402H7.05V9.17773C7.05 9.02192 7.1119 8.87249 7.22207 8.76231C7.33225 8.65213 7.48169 8.59023 7.6375 8.59023H8.8125V9.17773C8.8125 9.33355 8.8744 9.48298 8.98457 9.59316C9.09475 9.70334 9.24419 9.76523 9.4 9.76523C9.55581 9.76523 9.70525 9.70334 9.81542 9.59316C9.9256 9.48298 9.9875 9.33355 9.9875 9.17773V8.59023H13.5125V9.17773C13.5125 9.33355 13.5744 9.48298 13.6846 9.59316C13.7948 9.70334 13.9442 9.76523 14.1 9.76523C14.2558 9.76523 14.4052 9.70334 14.5154 9.59316C14.6256 9.48298 14.6875 9.33355 14.6875 9.17773V8.59023H15.8625C16.0183 8.59023 16.1677 8.65213 16.2779 8.76231C16.3881 8.87249 16.45 9.02192 16.45 9.17773V10.9402Z" fill="#FAFAFA"/>
</g>
<defs>
<linearGradient id="paint0_linear_312_4116" x1="-2.83259" y1="-1.9428" x2="22.6607" y2="23.0259" gradientUnits="userSpaceOnUse">
<stop stop-color="#B21B20"/>
<stop offset="0.546875" stop-color="#EF4423"/>
<stop offset="1" stop-color="#FFC20E"/>
</linearGradient>
</defs>
</svg>
